<svg width="244" height="232" viewBox="0 0 244 232" fill="none" xmlns="http://www.w3.org/2000/svg">
<path d="M40.6264 192.056C38.6918 189.638 36.5153 187.462 33.6135 186.011C30.7116 184.56 27.3259 183.834 23.4567 183.834C20.0712 183.834 16.9277 184.56 14.0258 185.769C11.124 186.978 8.70551 188.671 6.5291 190.847C4.3527 193.024 2.90176 195.442 1.69264 198.585C0.483528 201.487 0 204.631 0 208.017C0 211.644 0.483528 214.788 1.69264 217.69C2.90176 220.591 4.35275 223.251 6.28734 225.186C8.22192 227.362 10.6402 229.055 13.542 230.022C16.4439 231.232 19.5876 231.715 23.2149 231.715C28.2932 231.715 32.8879 230.506 36.5152 228.088C40.1426 225.67 42.8027 221.8 44.7372 216.239H36.999C35.3063 216.239 33.8552 216.964 32.6461 218.173C32.1625 218.899 31.4369 219.624 30.4696 220.108C28.535 221.317 26.3588 222.042 23.9405 222.042C20.3132 222.042 17.6531 221.075 15.7185 219.382C13.7839 217.448 12.8165 214.546 12.5747 210.435H45.4628C45.7047 206.807 45.4628 203.422 44.4955 200.278C43.77 197.376 42.3191 194.475 40.6264 192.056ZM12.5747 202.938C12.5747 201.971 12.8167 201.004 13.0585 200.036C13.3003 198.827 14.0257 197.86 14.7511 196.893C15.4766 195.925 16.6858 194.958 17.895 194.475C19.1041 193.749 20.7968 193.507 22.9732 193.507C26.1169 193.507 28.2934 194.233 29.7443 195.925C31.1953 197.618 32.4042 200.036 32.8879 203.18H12.5747V202.938Z" fill="#F37721"/>
<path d="M52.476 230.746H66.2601V204.629H88.0242C90.6842 204.629 92.8607 202.453 92.8607 199.793V193.747H66.5019V179.238H92.1351C94.7951 179.238 96.9715 177.061 96.9715 174.401V167.388H52.7181V230.746H52.476Z" fill="#F37721"/>
<path d="M140.258 192.056C138.323 189.638 136.147 187.462 133.245 186.011C130.343 184.56 126.958 183.834 123.089 183.834C119.703 183.834 116.559 184.56 113.657 185.769C110.756 186.978 108.337 188.671 106.161 190.847C103.985 193.024 102.534 195.442 101.324 198.585C100.115 201.487 99.6315 204.631 99.6315 208.017C99.6315 211.644 100.115 214.788 101.324 217.69C102.534 220.591 103.985 223.251 105.919 225.186C107.854 227.362 110.272 229.055 113.174 230.022C116.076 231.232 119.219 231.715 122.847 231.715C127.925 231.715 132.52 230.506 136.147 228.088C139.774 225.67 142.434 221.8 144.369 216.239H136.631C134.938 216.239 133.245 216.964 132.278 218.173C131.794 218.899 131.069 219.624 130.101 220.108C128.167 221.317 125.99 222.042 123.572 222.042C119.945 222.042 117.285 221.075 115.35 219.382C113.415 217.448 112.448 214.546 112.207 210.435H145.094C145.336 206.807 145.094 203.422 144.127 200.278C143.402 197.376 141.951 194.475 140.258 192.056ZM112.207 202.938C112.207 201.971 112.448 201.004 112.69 200.036C112.932 198.827 113.657 197.86 114.383 196.893C115.108 195.925 116.317 194.958 117.526 194.475C118.736 193.749 120.428 193.507 122.605 193.507C125.748 193.507 127.925 194.233 129.376 195.925C130.827 197.618 132.036 200.036 132.52 203.18H112.207V202.938Z" fill="#F37721"/>
<path d="M189.105 192.056C187.171 189.638 184.994 187.462 182.093 186.011C179.191 184.56 175.805 183.834 171.936 183.834C168.55 183.834 165.406 184.56 162.505 185.769C159.603 186.978 157.185 188.671 155.008 190.847C152.832 193.024 151.381 195.442 150.172 198.585C148.963 201.487 148.479 204.631 148.479 208.017C148.479 211.644 148.963 214.788 150.172 217.69C151.381 220.591 152.832 223.251 154.766 225.186C156.701 227.362 159.119 229.055 162.021 230.022C164.923 231.232 168.067 231.715 171.694 231.715C176.772 231.715 181.367 230.506 184.994 228.088C188.622 225.67 191.282 221.8 193.216 216.239H185.478C183.785 216.239 182.334 216.964 181.125 218.173C180.642 218.899 179.916 219.624 178.949 220.108C177.014 221.317 174.838 222.042 172.42 222.042C168.792 222.042 166.132 221.075 164.198 219.382C162.263 217.448 161.296 214.546 161.054 210.435H193.942C194.183 206.807 193.942 203.422 192.975 200.278C192.249 197.376 191.04 194.475 189.105 192.056ZM161.054 202.938C161.054 201.971 161.296 201.004 161.538 200.036C161.779 198.827 162.505 197.86 163.23 196.893C163.956 195.925 165.165 194.958 166.374 194.475C167.583 193.749 169.276 193.507 171.452 193.507C174.596 193.507 176.772 194.233 178.223 195.925C179.674 197.618 180.883 200.036 181.367 203.18H161.054V202.938Z" fill="#F37721"/>
<path d="M236.261 167.634C233.843 167.634 231.667 169.569 231.667 172.229V190.607H231.425C229.974 188.431 228.04 186.738 225.622 185.529C223.203 184.32 220.543 183.836 217.883 183.836C214.497 183.836 211.596 184.562 208.936 185.771C206.276 186.98 204.341 188.914 202.648 191.091C200.956 193.267 199.746 195.686 198.779 198.587C197.812 201.489 197.57 204.391 197.57 207.535C197.57 210.679 198.053 213.822 198.779 216.724C199.504 219.626 200.956 222.286 202.648 224.462C204.341 226.639 206.517 228.573 209.177 229.783C211.837 230.992 214.739 231.717 218.125 231.717C221.027 231.717 223.929 231.233 226.105 230.024C228.523 228.815 230.458 227.123 231.909 224.704H232.151V230.508H244V167.634H236.261ZM231.667 213.097C231.425 214.79 230.7 216.482 229.974 217.933C229.249 219.384 228.04 220.351 226.589 221.319C225.138 222.044 223.445 222.528 221.51 222.528C219.576 222.528 217.883 222.044 216.432 221.319C214.981 220.351 214.014 219.384 213.047 217.933C212.079 216.482 211.354 215.031 211.112 213.097C210.629 211.404 210.387 209.469 210.387 207.777C210.387 205.842 210.628 204.149 210.87 202.457C211.354 200.764 211.837 199.071 212.805 197.862C213.772 196.411 214.739 195.444 216.19 194.476C217.641 193.751 219.334 193.267 221.51 193.267C223.687 193.267 225.379 193.751 226.589 194.476C228.04 195.202 229.007 196.411 229.974 197.62C230.941 198.829 231.425 200.522 231.909 202.215C232.151 203.907 232.392 205.842 232.392 207.535C232.151 209.469 231.909 211.404 231.667 213.097Z" fill="#F37721"/>
<path d="M192.733 59.7759C180.158 59.0504 174.113 71.6252 170.727 81.7817C168.792 87.8273 167.1 92.9056 163.472 98.2257C159.603 104.271 154.283 109.591 148.479 113.461C142.434 117.33 135.663 119.99 128.65 120.957C113.415 123.133 97.4549 117.572 86.5729 106.689C85.1219 105.239 83.6707 103.304 83.9126 101.128C84.3962 99.193 86.0892 97.9839 87.782 97.0166C104.71 87.1018 121.879 77.1871 138.807 67.2724C147.27 62.4359 155.734 57.3576 164.44 52.5212C168.793 50.1029 172.904 47.6847 177.256 45.0247C180.4 43.0901 185.962 41.3973 184.269 36.5609C184.027 36.319 184.027 36.0772 183.786 35.5936C170.969 13.5877 146.787 -0.921703 119.461 0.0455883C82.9454 1.2547 51.2665 32.9335 50.0574 69.4488C48.8482 111.042 82.7037 144.898 124.055 143.447C162.263 142.237 192.975 110.8 193.458 72.5925C193.942 68.4815 193.458 63.8868 192.733 59.7759ZM132.761 18.4241C132.761 18.4241 146.303 23.9861 143.885 39.7045C143.885 39.7045 142.676 51.5539 130.101 55.423C150.898 39.2209 133.97 20.1169 133.244 19.3914C145.094 34.8681 136.872 46.7174 132.035 51.7957C132.277 50.3448 132.035 48.4102 130.585 45.7501C126.474 37.2863 127.683 25.6788 132.761 18.4241ZM114.866 32.208C114.866 32.208 127.924 41.881 123.813 59.534C119.219 23.0188 83.1873 30.7571 83.1873 30.7571C109.546 27.3716 118.01 45.5083 120.67 54.6976C119.219 53.4885 116.559 52.2793 112.448 52.0375C99.873 51.0702 87.0565 41.6391 81.7364 30.5153C81.7364 30.5153 97.6966 18.4241 114.866 32.208ZM71.8214 80.5726C71.8214 80.5726 70.1287 62.9196 88.5073 56.3903C88.5073 56.3903 102.049 51.0702 113.415 62.4359C113.173 62.1941 112.69 62.1941 112.448 61.9523C111.722 61.7104 111.239 61.4686 110.513 61.2268C108.82 60.5013 107.37 60.0177 105.919 59.7759C105.677 59.7759 105.435 59.534 104.951 59.534C104.71 59.534 104.468 59.2922 103.984 59.2922C103.5 59.2922 103.259 59.0504 102.775 59.0504C102.291 59.0504 101.808 59.0504 101.566 58.8086C101.082 58.8086 100.84 58.8086 100.357 58.8086H100.115C99.6312 58.8086 99.3894 58.8086 98.9058 58.8086C98.6639 58.8086 98.1802 58.8086 97.9384 58.8086C97.6966 58.8086 97.4546 58.8086 97.2128 58.8086C96.971 58.8086 96.7294 58.8086 96.4875 58.8086C96.2457 58.8086 96.2455 58.8086 96.0037 58.8086C95.7619 58.8086 95.5202 58.8086 95.2784 58.8086C94.7948 58.8086 94.5529 59.0504 94.0693 59.0504C93.8275 59.0504 93.3438 59.2922 93.102 59.2922C92.1347 59.534 91.1674 59.7759 90.442 60.2595C89.9583 60.5013 89.7165 60.5013 89.2328 60.7431C88.991 60.7431 88.9908 60.985 88.749 60.985C88.5072 61.2268 88.0238 61.2268 87.782 61.4686C86.8147 61.9523 85.8472 62.6777 84.8799 63.1614C84.6381 63.4032 84.3964 63.4032 84.1546 63.645C83.9128 63.8868 83.6709 64.1287 83.1873 64.3705C82.9454 64.6123 82.9453 64.6123 82.7034 64.8541C82.4616 65.096 82.22 65.3378 81.7364 65.5796C81.4946 65.8214 81.2526 65.8214 81.2526 66.0633L80.769 66.5469C80.5272 66.7887 80.527 66.7887 80.2852 67.0305C79.8016 67.5142 79.318 67.9978 78.8343 68.7233C78.5925 68.9651 78.5926 68.9651 78.3508 69.2069C77.8672 69.6906 77.3835 70.1742 77.1417 70.8997C76.8999 71.1415 76.6579 71.6252 76.4161 71.867C76.1743 72.1088 75.9326 72.3506 75.9326 72.8343C75.6908 73.0761 75.6906 73.3179 75.4488 73.5598C75.4488 73.5598 75.4488 73.5598 75.4488 73.8016C75.2069 74.0434 75.2071 74.2852 74.9652 74.5271C74.9652 74.7689 74.7235 75.0107 74.7235 75.0107L74.4817 75.2525C73.9981 75.978 73.7562 76.7035 73.5144 77.1871C73.5144 77.1871 73.5144 77.1871 73.5144 77.4289V77.6707C73.5144 77.9126 73.2726 78.1544 73.2726 78.1544C73.2726 78.3962 73.0305 78.3962 73.0305 78.638V78.8799C73.0305 79.1217 72.7888 79.3635 72.7888 79.3635C73.0306 78.8799 73.2725 78.3962 73.5144 78.1544C73.7562 77.6707 73.7561 77.4289 73.9979 77.1871C73.9979 76.9453 74.2396 76.7035 74.2396 76.4616C74.7233 75.4943 75.4489 74.5271 75.9326 73.5598C76.1744 73.3179 76.1743 73.0761 76.4161 72.8343C76.6579 72.5925 76.6581 72.3506 76.8999 72.1088C77.1418 71.867 77.3834 71.6252 77.6252 71.3834C78.1089 70.6579 78.8345 69.9324 79.3182 69.4488C79.56 69.2069 79.8016 68.9651 80.0435 68.7233C80.2853 68.4815 80.5272 68.2397 80.769 67.9978C81.2527 67.5142 81.978 67.0305 82.4617 66.5469C82.7035 66.3051 82.9454 66.0632 83.1873 65.8214C83.4291 65.5796 83.6707 65.3378 83.9126 65.3378C84.1544 65.096 84.6381 64.8541 84.8799 64.6123C85.1217 64.3705 85.3637 64.3705 85.6055 64.1287C85.8473 63.8868 86.089 63.8868 86.3308 63.645C86.5726 63.645 86.8146 63.4032 87.0564 63.4032C87.2982 63.4032 87.5399 63.1614 87.5399 63.1614C88.2654 62.9196 88.7491 62.6777 89.4746 62.4359C89.7164 62.4359 89.9584 62.1941 90.2002 62.1941C90.442 62.1941 90.6836 61.9523 91.1672 61.9523C91.4091 61.9523 91.651 61.7104 91.8928 61.7104C92.1347 61.7104 92.6184 61.4686 92.8602 61.4686C93.102 61.4686 93.3439 61.4686 93.8275 61.2268C94.553 61.2268 95.0365 60.985 95.7619 60.985C96.0038 60.985 96.2456 60.985 96.7293 60.985C101.324 60.7431 105.435 61.4686 108.337 62.4359C106.644 62.9196 104.71 64.3705 102.533 67.2724C96.0039 76.7035 82.7034 82.0236 71.8214 80.5726Z" fill="#F37721"/>
<path d="M132.76 112.973C134.695 113.456 167.583 104.993 165.648 74.0393C165.406 74.0393 157.668 98.7052 132.76 112.973Z" fill="#F37721"/>
</svg>
